Coordinates
version=1
nRows=17
nColumns=40
inDegrees=yes

Units are S.I. units (second, meters, Newtons, ...)
Angles are in degrees.

endheader
time	pelvis_tilt	pelvis_list	pelvis_rotation	pelvis_tx	pelvis_ty	pelvis_tz	hip_flexion_r	hip_adduction_r	hip_rotation_r	knee_angle_r	knee_angle_r_beta	ankle_angle_r	subtalar_angle_r	mtp_angle_r	hip_flexion_l	hip_adduction_l	hip_rotation_l	knee_angle_l	knee_angle_l_beta	ankle_angle_l	subtalar_angle_l	mtp_angle_l	lumbar_extension	lumbar_bending	lumbar_rotation	arm_flex_r	arm_add_r	arm_rot_r	elbow_flex_r	pro_sup_r	wrist_flex_r	wrist_dev_r	arm_flex_l	arm_add_l	arm_rot_l	elbow_flex_l	pro_sup_l	wrist_flex_l	wrist_dev_l
     53.12000000	     -6.26351866	     -3.85943036	     -0.79059619	      1.08565778	      0.92961421	      0.43612009	     29.56104830	     -6.87684936	     -6.80512452	     69.04297662	     69.04297662	      4.21039340	    -11.30632712	     -2.10955868	     19.30724692	     -4.74951355	    -11.00454567	     22.73171636	     22.73171636	     13.42794689	     -4.10168809	     -0.88964805	    -10.64817900	      5.06675746	      1.16594952	      8.93309307	    -14.61502796	     -3.35693845	     76.35704148	     45.23151010	      0.00000000	      0.00000000	     13.81600150	    -15.95522343	     10.56297467	     36.97273152	     45.56965785	      0.00000000	      0.00000000
     53.13214286	     -6.16174398	     -3.84375392	     -0.98412438	      1.08464484	      0.93062116	      0.43614573	     30.83645415	     -6.72212580	     -6.45534931	     68.48943204	     68.48943204	      4.20333446	    -11.26265924	     -2.16349577	     18.24576364	     -4.70596647	    -11.32383622	     21.91083946	     21.91083946	     13.58761372	     -3.67319384	     -0.94895845	    -10.95615070	      5.01788367	      1.56232816	      6.56919858	    -14.88308480	     -3.22285879	     72.99766294	     45.32856483	      0.00000000	      0.00000000	     15.81832798	    -16.04479405	     10.37239332	     37.89272274	     45.63049319	      0.00000000	      0.00000000
     53.14428571	     -6.15719490	     -3.91902555	     -1.07683566	      1.08362615	      0.93126447	      0.43607738	     32.09495331	     -6.51851588	     -6.25612421	     67.77527067	     67.77527067	      4.12515457	    -11.28976636	     -2.35333604	     17.46114789	     -4.77886371	    -11.58823136	     21.36682063	     21.36682063	     13.66889905	     -3.23664189	     -1.53356294	    -10.99706455	      5.05879604	      1.23082632	      5.65722817	    -14.14546300	     -3.82769076	     66.43466711	     45.56155740	      0.00000000	      0.00000000	     17.43133937	    -16.37597534	     10.27390331	     38.58667902	     45.69318377	      0.00000000	      0.00000000
     53.15642857	     -6.08429919	     -3.93126181	     -1.22267025	      1.08268956	      0.93191845	      0.43608456	     33.19311442	     -6.33507559	     -5.97218473	     66.87653426	     66.87653426	      4.09505185	    -11.28210163	     -2.28058362	     16.57830080	     -4.76786828	    -11.82336468	     20.79037163	     20.79037163	     13.85942415	     -2.92977658	     -1.75246770	    -11.22378629	      5.05772443	      1.66061889	      3.71112532	    -14.33872430	     -3.74648467	     62.46833012	     45.68055406	      0.00000000	      0.00000000	     19.25608169	    -16.36066661	      9.97878555	     39.99576868	     45.76866582	      0.00000000	      0.00000000
     53.16857143	     -6.10481512	     -3.96308750	     -1.32726681	      1.08170582	      0.93238988	      0.43618036	     34.26653853	     -6.13994997	     -5.78573428	     65.73924431	     65.73924431	      4.05687604	    -11.34068952	     -2.10747425	     15.80422951	     -4.78772653	    -12.09233382	     20.17916348	     20.17916348	     13.88645495	     -2.52383939	     -2.33781797	    -11.26675689	      5.05661121	      1.11797393	      3.56852739	    -13.54894726	     -4.33456095	     55.29559003	     45.93167752	      0.00000000	      0.00000000	     20.33870581	    -16.92520466	      9.48109520	     41.46181899	     45.87299796	      0.00000000	      0.00000000
     53.18071429	     -6.07820546	     -3.96235762	     -1.43905040	      1.08081846	      0.93279675	      0.43626942	     35.15491443	     -5.97561283	     -5.59130442	     64.32484748	     64.32484748	      4.04307050	    -11.38576341	     -1.85519329	     15.00231838	     -4.76332345	    -12.33430513	     19.61998689	     19.61998689	     13.99255032	     -2.19044715	     -2.73035748	    -11.40997883	      5.05224018	      1.03350003	      2.66917699	    -13.30664848	     -4.60555694	     50.04601236	     46.09727018	      0.00000000	      0.00000000	     21.49281038	    -17.17932943	      8.73270139	     43.42867724	     46.00495219	      0.00000000	      0.00000000
     53.19285714	     -6.08567406	     -3.95871626	     -1.47769347	      1.07994860	      0.93298439	      0.43634890	     35.93965788	     -5.85339367	     -5.51160668	     62.64751042	     62.64751042	      4.08600929	    -11.50102293	     -1.59929498	     14.26706433	     -4.70621911	    -12.40278346	     19.09336820	     19.09336820	     14.22524210	     -1.90497694	     -2.78661631	    -11.53254772	      5.13048648	      1.09203585	      0.60121421	    -13.41762164	     -4.50309347	     48.11251266	     46.14639935	      0.00000000	      0.00000000	     22.95752822	    -17.32318381	      8.38962804	     44.63111422	     46.06797665	      0.00000000	      0.00000000
     53.20500000	     -6.02954615	     -3.86711942	     -1.60132210	      1.07917738	      0.93321791	      0.43662959	     36.51661750	     -5.73036118	     -5.30319718	     60.63178519	     60.63178519	      4.10892585	    -11.65677140	     -1.39083449	     13.44133232	     -4.62245297	    -12.82283505	     18.56161937	     18.56161937	     14.32755524	     -1.34437843	     -3.41338654	    -11.66191629	      4.99365562	      0.93767915	      0.82450952	    -12.86457515	     -5.57155903	     40.68053922	     46.43664684	      0.00000000	      0.00000000	     23.55098691	    -17.63840316	      7.39148578	     47.73456774	     46.22118263	      0.00000000	      0.00000000
     53.21714286	     -6.11202990	     -3.67288149	     -1.66023396	      1.07829184	      0.93292425	      0.43679882	     37.14461986	     -5.78443258	     -5.17161514	     58.40733529	     58.40733529	      4.26646331	    -11.59063734	     -1.13444268	     13.00925011	     -4.41212658	    -12.94900636	     18.45553373	     18.45553373	     14.59343007	     -1.31705950	     -3.51799363	    -11.58481325	      4.89048760	      0.27574645	     -0.78977801	    -12.99226422	     -5.59184006	     39.87892522	     46.45641380	      0.00000000	      0.00000000	     24.61190584	    -18.12258485	      7.13360686	     48.30441390	     46.26187380	      0.00000000	      0.00000000
     53.22928571	     -5.94216320	     -3.66620520	     -1.70882714	      1.07787699	      0.93324146	      0.43727634	     37.20530568	     -5.60805099	     -5.25137137	     55.72573656	     55.72573656	      4.22041694	    -11.91601394	     -1.15331720	     11.85363243	     -4.36738354	    -13.31828271	     17.53252682	     17.53252682	     14.62396987	     -0.59748961	     -4.09519957	    -11.94113207	      4.85752066	      0.58214649	     -1.12553585	    -12.59122734	     -7.04805032	     33.00964925	     46.75688603	      0.00000000	      0.00000000	     24.66439686	    -18.30322676	      5.51570512	     53.82517011	     46.49499104	      0.00000000	      0.00000000
     53.24142857	     -5.99676114	     -3.51804462	     -1.76795109	      1.07736358	      0.93301391	      0.43767664	     37.41518640	     -5.58303747	     -5.30973377	     52.84425252	     52.84425252	      4.34451267	    -11.82037087	     -0.82543018	     11.09293445	     -4.15066431	    -13.44663714	     16.89381472	     16.89381472	     14.83400183	     -0.30355419	     -4.11443876	    -11.94033848	      4.75680375	      1.01624118	     -3.20791462	    -12.83486085	     -7.19157549	     31.46041732	     46.80262182	      0.00000000	      0.00000000	     25.85129931	    -17.96296979	      5.05945460	     55.63272463	     46.57309489	      0.00000000	      0.00000000
     53.25357143	     -6.01808493	     -3.33227014	     -1.78672738	      1.07699935	      0.93266667	      0.43820518	     37.41343807	     -5.61042951	     -5.50446527	     49.72057339	     49.72057339	      4.50081650	    -11.58285755	     -0.58296399	     10.31157381	     -3.92061024	    -13.65781896	     16.29803074	     16.29803074	     15.01792865	      0.13196456	     -4.36468182	    -11.96488227	      4.61061143	      1.21514208	     -4.94045750	    -12.89987800	     -7.60434235	     29.50807684	     46.88320018	      0.00000000	      0.00000000	     26.58568821	    -17.89362871	      4.48744109	     58.38595113	     46.67156305	      0.00000000	      0.00000000
     53.26571429	     -6.01445246	     -3.14221027	     -1.78467638	      1.07680102	      0.93220842	      0.43884612	     37.19638932	     -5.64524595	     -5.84905307	     46.35473216	     46.35473216	      4.57811282	    -11.17645179	     -0.47129345	      9.50081154	     -3.68904278	    -13.86406625	     15.70682267	     15.70682267	     15.09565345	      0.51989220	     -4.98745830	    -12.01565223	      4.43886085	      0.67333602	     -5.82693276	    -12.80682141	     -8.72712109	     26.98473507	     47.03399993	      0.00000000	      0.00000000	     26.23013159	    -18.52228583	      3.43174810	     62.72820427	     46.83438087	      0.00000000	      0.00000000
     53.27785714	     -5.98068996	     -2.93336705	     -1.77078415	      1.07680195	      0.93171045	      0.43957088	     36.75965746	     -5.66560719	     -6.28310546	     42.80683939	     42.80683939	      4.76689097	    -10.46400232	      0.00114861	      8.61443039	     -3.41838377	    -13.97339581	     15.06880349	     15.06880349	     15.34360428	      0.87589729	     -5.10394978	    -12.01576885	      4.26752723	      0.96720646	     -7.71428568	    -12.96442310	     -8.87604685	     25.84937801	     47.07203046	      0.00000000	      0.00000000	     27.15438204	    -18.24433061	      3.08161895	     64.55811667	     46.90030875	      0.00000000	      0.00000000
     53.29000000	     -5.93992821	     -2.62542145	     -1.77536018	      1.07709546	      0.93095631	      0.44044109	     36.21897445	     -5.77247454	     -6.82428059	     39.26956646	     39.26956646	      4.97509511	     -9.40090171	      0.64013161	      7.62907751	     -3.02897619	    -14.14817850	     14.27383938	     14.27383938	     15.33817158	      1.20645828	     -5.84471327	    -12.04942816	      3.93893653	      0.67123414	     -9.06324580	    -12.94373038	     -9.79389724	     24.65700611	     47.16224070	      0.00000000	      0.00000000	     26.84568509	    -18.64414511	      2.21004972	     68.91478743	     47.05445001	      0.00000000	      0.00000000
     53.30214286	     -5.94778311	     -2.41445593	     -1.74159246	      1.07756358	      0.93002799	      0.44150723	     35.51617796	     -5.71481828	     -7.48151291	     35.59544768	     35.59544768	      5.01838563	     -8.29128961	      1.31482430	      6.76874697	     -2.77716875	    -14.23113711	     13.66599921	     13.66599921	     15.63777366	      1.54323227	     -6.01558962	    -11.88010169	      3.73981739	      0.83977259	    -10.79342969	    -13.03134527	     -9.89386251	     23.88585102	     47.18440422	      0.00000000	      0.00000000	     27.56883709	    -18.43740765	      1.97707767	     70.51627433	     47.10608538	      0.00000000	      0.00000000
     53.31428571	     -5.76983776	     -1.98887435	     -1.75584798	      1.07846407	      0.92903770	      0.44261858	     34.63987599	     -5.90487716	     -8.24809526	     32.28538438	     32.28538438	      5.39355007	     -6.44363800	      2.67852220	      5.49487305	     -2.22684267	    -14.35741430	     12.67381855	     12.67381855	     15.56985682	      1.83075072	     -6.85910250	    -12.02529073	      3.26084021	      0.69983414	    -12.42938971	    -13.05038806	    -10.55929761	     23.79029411	     47.20847415	      0.00000000	      0.00000000	     27.16906565	    -18.75270358	      1.34802125	     75.02604284	     47.24704747	      0.00000000	      0.00000000
